<?xml version="1.0"?><svg version="1.2" baseProfile="tiny-ps" viewBox="0 0 300 300" xmlns="http://www.w3.org/2000/svg" xmlns:xlink="http://www.w3.org/1999/xlink"><title>brandklip</title><g><g fill="#fff" transform="matrix(.1 0 0 -.1 0 300)"><path d="M0 1500V0h3000v3000H0V1500z"/></g><g fill="#dadada" transform="matrix(.1 0 0 -.1 0 300)"><path d="M897 2403c-4-3-7-57-7-119v-113l-117-3-118-3v-450l243-3 242-2v239l118 3 117 3 3 228 2 227H903l-6-7zm233-338v-95H900v190h230v-95zm492 118 3-228 118-3 117-3v-239l243 2 242 3v450l-117 3-118 3v239h-490l2-227zm478-118v-95h-230v190h230v-95zm-757-229c-4-8-17-15-28-18l-20-3v-630l20-3c11-3 24-10 28-18l8-14h100l5 15 6 15h48v50h50v40h50v50h50v40h50v50h50v40h50v100h-50v40h-50v50h-50v40h-50v50h-50v40h-50v50h-48l-6 15-5 15h-100l-8-14zm87-136v-20h50v-40l25-6 25-6v-38h50v-40l25-6 25-6v-66l-24-6-25-6-3-23-3-22-22-3-23-3v-39h-50v-50h-50v-40h-20v440h20v-20zm-780-645V830h240V590h490v450h-240v240H650v-225zm480-120v-95H900v190h230v-95zm730 225v-120h-240V590h490v240h240v450h-490v-120zm240-225v-95h-230v190h230v-95z"/></g><g fill="#acacac" transform="matrix(.1 0 0 -.1 0 300)"><path d="m898 2288-3-123-122-3-123-3v-439h490v240h240v450H901l-3-122zm240-225-3-98-117-3-118-3v201h241l-3-97zm482 122v-225h240v-240h490v440h-239l-3 123-3 122-242 3-243 2v-225zm480-125v-101l-117 3-118 3-3 98-3 97h241v-100zm-760-230v-10h-40v-640h40v-20h110v19l28 3 27 3 3 23 3 22h49v39l23 3 22 3 3 23 3 22h49v40h50v50h50v40h50v100h-50v40h-50v50h-50v40h-49l-3 23-3 22-22 3-23 3v39h-49l-3 23-3 22-27 3-28 3v19h-110v-10zm110-130v-20h50v-50h50v-40h50v-50h50v-70l-25-6-25-6v-48h-50v-40h-50v-50h-50v-40h-50v440h50v-20zm-798-642 3-223 123-3 122-3V590h480v450h-240v240H650l2-222zm488-123v-95H900v190h240v-95zm720 225v-120h-240V590l243 2 242 3 3 117 3 117 117 3 117 3 3 223 2 222h-490v-120zm240-225v-95h-240v190h240v-95z"/></g><g fill="#757575" transform="matrix(.1 0 0 -.1 0 300)"><path d="M900 2280v-120H660v-440h480v240h240v440H900v-120zm240-220v-100H900v200h240v-100zm480 120v-220h240v-240h480v440h-240v240h-480v-220zm480-120v-100h-240v200h240v-100zm-750-230v-10h-50v-630h41l5-15 6-15h96l6 15 5 15h41v40h49l3 23 3 22 23 3 22 3v39h60v40h40v50h60v39l23 3 22 3v90l-22 3-23 3v39h-49l-3 23-3 22-22 3-23 3v39h-60v50h-50v40h-50v50h-50v20h-100v-10zm100-131v-19h50v-38l25-6 25-6v-40h49l3-22 3-23 23-3 22-3v-79h-50v-50h-50v-40h-50v-50h-50v-40h-50v218c0 120 3 221 6 224s14 4 25 1l19-5v-19zm-790-644V830h240V590h480v450h-240v240H660v-225zm480-115V840H900v200h240V940zm720 220v-120h-240V590h480v240h240v450h-480v-120zm240-220V840h-240v200h240V940z"/></g><g fill="#313131" transform="matrix(.1 0 0 -.1 0 300)"><path d="M900 2280v-120H660v-440h480v240h240v440H900v-120zm240-220v-100H900v200h240v-100zm480 120v-220h240v-240h480v440h-240v240h-480v-220zm480-120v-100h-240v200h240v-100zm-754-235-5-15h-41v-620h50v-30h100v30h50v40h50v50h50v40h50v40h50v50h60v50h50v80h-50v50h-60v39l-22 3-23 3-3 23-3 22h-49v39l-22 3-23 3-3 23-3 22h-49v40h-50v30h-98l-6-15zm104-120v-25h50v-39l28-3 27-3 1-12c1-7 2-17 3-23l1-10h40v-39l28-3 27-3 3-42 3-43h-51v-49l-27-3-28-3-3-22-3-23h-49v-40h-49l-3-22-3-23h-40l-3 228-2 227h50v-25zm-790-645V840h240v200h240V830H900V600h480v440h-239l-3 118-3 117-237 3-238 2v-220zm1207 213c-4-3-7-57-7-120v-113h-240V600h480v230h-240v210h240V840h240v440h-467l-6-7z"/></g><g fill="#010101" transform="matrix(.1 0 0 -.1 0 300)"><path d="M900 2285v-115h240v-200h240v430H900v-115zm720-100v-215h240v200h240v230h-480v-215zm-960-240v-215h470v230H890v200H660v-215zm1450 115v-100h-240v-230h470v430h-230v-100zm-760-235v-15h-40v-620h40v-20h89l6 10c3 6 17 10 31 10h24v40h50v50h50v40h49l3 23 3 22 23 3 22 3v39h50v50h50v80h-50v50h-50v40h-50v50h-50v40h-50v50h-50v40h-51l-5 15-6 15h-88v-15zm108-122 3-23h49v-40h50v-50h50v-40h50v-90l-25-6-25-6v-38h-50v-50h-50v-40h-49l-3-22-3-23h-60l-3 215c-1 118 0 221 3 228l5 13 27-3 28-3 3-22zm-798-648V840h230v200h240v230H660v-215zm1210 100v-115h240V840h230v430h-470v-115zm-730-225V830H900V600h480v430h-240V930zm480-115V600h480v230h-240v200h-240V815z"/></g></g></svg>