<svg width="1154" height="1154" viewBox="0 0 1154 1154" fill="none" xmlns="http://www.w3.org/2000/svg">
<path d="M954 0C1064.46 0 1154 89.5431 1154 200V954C1154 1064.46 1064.46 1154 954 1154H200C89.5431 1154 0 1064.46 0 954V200C0 89.5431 89.5431 0 200 0H954ZM404.679 796.751V892.449H289.84V1007.29H519.517V796.751H404.679ZM634.355 796.751V1007.29H864.032V892.449H749.193V796.751H634.355ZM175.001 681.912V892.449H289.84V796.751H404.679V681.912H175.001ZM749.193 681.912V796.751H864.032V892.449H978.87V681.912H749.193ZM503.64 413.957V425.86H481.238V725.81H503.64V737.711H552.916V725.809H577.991V704.383H602.187V682.959H626.373V661.537H650.56V642.491H673.86V618.684H698.951V597.261H723.136V554.41H698.951V532.983H674.764V511.559H650.56V490.135H626.373V468.711H602.187V447.286H577.991V425.861H552.916V413.957H503.64ZM541.714 468.711V490.137H562.312V490.136H566.349V511.56H577.993V511.561H590.993V532.985H608.912V532.984H615.627V554.409H638.029V594.88H626.824V594.881H615.627V618.686H626.824V618.687H602.18V618.688H590.993V640.108H577.993V640.109H566.349V661.533H553.807V661.534H541.714V682.959H529.618V468.711H541.714ZM289.838 146V260.839H175V471.376H404.678V356.537H289.838V260.839H404.678V356.537H519.515V146H289.838ZM864.032 260.839V356.537H749.193V471.376H978.87V260.839H864.032ZM634.355 146V356.537H749.193V260.839H864.032V146H634.355Z" fill="#B6E1D1"/>
</svg>
